<svg xmlns="http://www.w3.org/2000/svg" id="Layer_1" viewBox="0 0 400.5 149.8">
  <style>
    .st0{fill:#73CDF0;} .st1{fill:#E4A94B;} .st2{fill:#D7A551;} .st3{fill:#CEA255;} .st4{fill:#B49760;} .st5{fill:#D6A14F;} .st6{fill:#EFAE4A;} .st7{fill:#DAA54F;} .st8{fill:#EAAB4A;} .st9{fill:#DCA64D;} .st10{fill:#EFB146;} .st11{fill:#EAAC4D;} .st12{fill:#DAA951;} .st13{fill:#BA9253;} .st14{fill:#CF9D50;} .st15{fill:#DFAA4D;} .st16{fill:#D2A04E;} .st17{fill:#E6AB4C;} .st18{fill:#DCA752;} .st19{fill:#CBA256;} .st20{fill:none;} .st21{fill:#2E4E6A;} .st22{fill:#395268;}
  </style>
  <g id="XMLID_1_">
    <path id="XMLID_396_" d="M167.1 71.1c-2.8 3-6.4 4.4-9.9 4.5-10.5.3-21 1.2-30.8-5.1-9.7-6.2-19.9-11.9-31.2-15-6-1.6-11.9-2.8-18-.7-.8.3-1.6.5-2.3.9-5.4 2.9-5.8 9-.6 12.2 3.7 2.3 7.6 4.1 12.2 3.8 1.5-.1 3 0 4.4 0 .4 1.8-.8 1.8-1.7 2-6.4 1.8-12.6 2-18.7-1.1-8.7-4.4-10.7-16-3.4-22.5 3.5-3.1 8.2-4 12.9-4.5 11.5-1.2 21.5 2.7 30.9 8.8 4.1 2.6 8.5 4.5 12.8 6.7 1.6.8 3.4 1.1 4.5-.5s1-3.5-.3-5.1c-1.4-1.6-2.9-3.2-4.5-4.6-2.1-1.9-4.5-2.9-7.2-1-1.1.8-2.1.9-3-.3-.8-1.3 0-2.3.7-3.2 1.5-1.9 3.9-1.9 5.9-2.2 8.2-1.3 15.7 3.2 19 11.1 1.3 3.2 2.6 6.5 4.1 9.6 2.5 5.1 10 8.8 15.4 7.3 3-.5 6 .3 8.8-1.1z" class="st0"/>
    <path id="XMLID_22_" d="M337.6 56.6c-3.6-7-10.1-9.2-17.3-9.7-11.1-.8-20.7 3.4-29.5 9.4-3.6 2.4-7.5 4.3-11.4 6-2.8 1.2-4.5.5-4.7-1.5-.2-3.5 1.6-5.9 4.3-7.9 2.5-1.9 5-3.4 8.1-1.3.8.5 1.6 1.6 2.4.2.5-.8.9-1.6.4-2.8-1-2.3-3-3.1-5.2-3.3-1.8-.2-3.7-.1-5.5 0-7 .1-12.4 4.5-14.6 11.3-2.1 6.3-3.9 12.9-10.9 15.8-1.1 0-2.3-.4-3 .9-2.5 0-5 .1-7.5-.1-2.4-.2-4.3-2.4-7.7-2.5 5.3 3.9 10.3 6.2 16.2 5.6 9.9 1 19.3-.7 27.6-6.4 5.8-3.9 12.1-6.8 18.3-10 5.9-3.1 12.4-4.7 18.9-5.4 4.1-.4 8.2.5 11.5 3.6 3.8 3.6 3.6 7.9-.7 10.8-1.8 1.2-3.7 2.1-5.9 2.6-3.3.7-6.7 1-10.3 1.1.5 1.7 1.6 2.3 2.9 2.8 8.7 3 17.9-.4 23-8.3 2.3-3.1 2.6-7.2.6-10.9z" class="st0"/>
    <path id="XMLID_343_" d="M186 40.7c.4-2.5 2.5-4.6 4.4-4.6 1 0 1.3.7 1.8 1.4.9 1.3.4 2.8.5 4.2-3.1 2.5-3.1 2.5-6.7-1z" class="st1"/>
    <path id="XMLID_342_" d="M180.9 32.8c-.4-2.9.9-4.2 3.8-3.9.4.9 1 1.7 2.1 2 0 2.3.4 4.8-3 5.1-1-1.2-2-2.2-2.9-3.2z" class="st2"/>
    <path id="XMLID_340_" d="M175.7 24.8c1.6.3 3.6-.2 3.8 2.1.1 1.1-1 1.7-2 1.8-2.1.2-3.7-.2-3.6-2.8.6-.4 1.2-.7 1.8-1.1z" class="st3"/>
    <path id="XMLID_338_" d="M231.8 31.7c-.3-.4-.6-.8-.9-1.1-.9-1-3-1-2.8-3 0-.2.5-.5.7-.5 1.6.2 2.4 1.6 3.4 2.7.4.4.4 1.2.5 1.8l-.4.1c0 .1-.5 0-.5 0z" class="st4"/>
    <path id="XMLID_320_" d="M221.8 20.8c.3.9 1.2 1 1.9 1.5 1 .8 2.4 1.6 2 3.1-.5 2.1-2.4 1.2-3.8 1.3-.3-.5-.6-.8-1.2-.8-.3-.1-.6-.2-.9-.2-.4-.3-.7-.6-1.1-1-.3-.4-.6-.7-.9-1.1-.8-1.6-.8-3.2 0-4.7 1.8-.1 2.6 1.5 4 1.9z" class="st5"/>
    <path id="XMLID_317_" d="M190 25.9c.2.1.3.1.5 0 .7.9 1.5 1.7 2.1 2.7.8 1.4 1.7 2.9-.5 4.1-1.7.9-3.3 1.4-4.4-.9-.2-.4-.7-.7-1-1v-3l1-1c1 .1 1.7-.1 2.3-.9z" class="st6"/>
    <path id="XMLID_316_" d="M207.6 32.9c1.1 1.3 1.2 2.5-.1 3.8-1.5.1-2.9.2-4.4.2-1.5 0-2.5-.8-2.3-2.5.1-1.5 1.1-2.3 2.6-2.5 1.5-.2 2.8.8 4.2 1z" class="st7"/>
    <path id="XMLID_315_" d="M195.8 24.9h3c1 1.5 2.5 2.8 2 5-.5 0-.9.3-1.1.8-3.6 1-3.6 1-5-2.8-.1-1.2.6-2.1 1.1-3z" class="st8"/>
    <path id="XMLID_314_" d="M219.6 31.7c-1.7.4-3.1-.8-4.7-1-.3-.4-.6-.8-1-1.1-.4-.6-.7-1.2-1.1-1.8.4-1.5 1.6-1.9 3-2 .4.9 1.2 1 2 .9.3.1.6.2.8.1.4.3.7.6 1.1.9 0 1.4 0 2.7-.1 4z" class="st9"/>
    <path id="XMLID_313_" d="M199.8 36.4c-.1 2.6-1.8 3.2-3.4 3.3-1.9.1-2.4-1.7-2.3-3.1.2-1.8 1.8-2.7 3.6-2.6 1.7.1 2.1 1.4 2.1 2.4z" class="st10"/>
    <path id="XMLID_312_" d="M209.7 29.8c-2.1.4-4.1.3-5.9-1.1-.3-.3-.7-.6-1-.8-.2-1.1.5-2 1-2.9h1c.4.5.9 1 1.6.9 3.1-.6 3.8 1.2 3.3 3.9z" class="st11"/>
    <path id="XMLID_311_" d="M211.9 35.6c-1.1-1.2-1.5-2.5.1-3.7.6 0 1.1 0 1.7-.1 1.7 3.2 1.5 3.7-1.8 3.8z" class="st12"/>
    <path id="XMLID_305_" d="M199.7 30.7c.2-.5.5-.8 1.1-.8-.2.5-.5.8-1.1.8z" class="st13"/>
    <path id="XMLID_304_" d="M202.8 27.8c.3.3.7.6 1 .8-.5.1-.9-.2-1-.8z" class="st13"/>
    <path id="XMLID_303_" d="M190.9 16.9c3.8.6 3.8.6 3.8 5.8-2.5 1.6-5 1.5-7.4-.2-2.2-1.6-2-3 .5-4.2 1-.5 2.3-.3 3.1-1.4z" class="st14"/>
    <path id="XMLID_302_" d="M183.7 20.8c.1.2.2.5.2.8 0 .6.3 1 .9 1.2v2.9c-4 0-4.4-.2-5.1-3 .6-.1.9-.4 1-1.1.6-.1.9-.4 1.1-.9.6.1 1.2.1 1.9.1z" class="st15"/>
    <path id="XMLID_300_" d="M184.8 25.8v-2.9c1.2.9 1.7 1.9 0 2.9z" class="st14"/>
    <path id="XMLID_298_" d="M183.7 20.8h-1.9c.1-.3.1-.6.1-.9.6.1 1.5 0 1.8.9z" class="st14"/>
    <path id="XMLID_297_" d="M184.8 22.8c-.6-.2-.9-.6-.9-1.2l.9 1.2z" class="st14"/>
    <path id="XMLID_296_" d="M181.8 20.8c-.1.6-.5.9-1.1.9.1-.5.5-.8 1.1-.9z" class="st14"/>
    <path id="XMLID_295_" d="M180.7 21.7c-.1.6-.4 1-1 1.1.1-.6.4-.9 1-1.1z" class="st14"/>
    <path id="XMLID_293_" d="M195.8 17.8c-.1-1.1.2-2 1.5-2.1 1.5-.1 3-.2 4.4-.1 2.8.1 3.7 1.4 3.5 5.1-.2 2.9-2.5 2.1-4.1 1.9-1.8-.2-3.5-.9-4.3-2.8 0-.8-.1-1.6-1-2z" class="st16"/>
    <path id="XMLID_292_" d="M212.6 16c.7.9 1.5 1.9 2.2 2.8v3c-.4.3-.7.6-1.1.9-2.1.3-4-.6-6-.9-2-5.7-1.4-6.4 4.9-5.8z" class="st17"/>
    <path id="XMLID_290_" d="M195.8 17.8c.9.4 1 1.1 1 2-.9-.4-1.1-1.1-1-2z" class="st14"/>
    <path id="XMLID_289_" d="M228.8 32.9c-1.4 0-2.7 0-4.1.1-.3-.1-.6-.2-.9-.2-.3-.3-.7-.6-1-1-.2-1.6.5-2.8 2.1-2.6 1.9.3 3.9 1.1 3.9 3.7z" class="st18"/>
    <path id="XMLID_288_" d="M221.7 33.9c0 .6-.1 1.2-.1 1.8-1.5.3-3 .3-4.6-.1.1-2.9 2.5-1.3 3.8-1.9.3.1.6.1.9.2z" class="st19"/>
    <g id="XMLID_3_">
      <path id="XMLID_5_" d="M228.8 27.1c-.2 0-.7.3-.7.5-.2 2 1.9 2 2.8 3 .3.4.6.8.9 1.1h.4l.4-.1c-.2-.6-.1-1.4-.5-1.8-.9-1.1-1.6-2.5-3.3-2.7z" class="st20"/>
      <path id="XMLID_107_" d="M184.8 22.8l-.9-1.2c0-.3-.1-.5-.2-.8-.3-1-1.1-.8-1.8-1 0 .3 0 .6-.1.9-.5.1-.9.4-1.1.9-.6.1-.9.5-1 1.1.7 2.8 1 3 5.1 3 1.7-.9 1.2-1.9 0-2.9z" class="st20"/>
      <path id="XMLID_108_" d="M186.7 30.8c-1-.3-1.6-1-2.1-1.9-2.9-.3-4.2 1-3.8 3.9 1 1 1.9 2.1 2.9 3.1 3.4-.3 3-2.8 3-5.1z" class="st20"/>
      <path id="XMLID_109_" d="M192.2 37.5c-.5-.7-.8-1.4-1.8-1.4-1.9 0-4 2.1-4.4 4.6 3.7 3.4 3.7 3.4 6.7 1.1-.1-1.4.4-2.9-.5-4.3z" class="st20"/>
      <path id="XMLID_110_" d="M196.8 19.8c.8 1.9 2.5 2.6 4.3 2.8 1.6.2 3.9 1 4.1-1.9.3-3.6-.6-4.9-3.5-5.1-1.5-.1-3 0-4.4.1-1.2.1-1.6.9-1.5 2.1-.1.9.1 1.6 1 2z" class="st20"/>
      <path id="XMLID_111_" d="M197.7 34c-1.8-.2-3.4.8-3.6 2.6-.2 1.3.3 3.2 2.3 3.1 1.6-.1 3.3-.6 3.4-3.3 0-1-.4-2.3-2.1-2.4z" class="st20"/>
      <path id="XMLID_112_" d="M198.8 24.9h-3c-.5 1-1.1 1.9-1.1 3 1.4 3.7 1.4 3.7 5 2.8.6 0 .9-.3 1.1-.8.5-2.2-1.1-3.5-2-5z" class="st20"/>
      <path id="XMLID_113_" d="M190.6 26c-.2.1-.4.1-.5 0-.6.7-1.4.9-2.3.9-.3.3-.6.7-1 1v3c.3.3.8.6.9 1 1.1 2.3 2.7 1.8 4.4.9 2.2-1.1 1.3-2.6.5-4.1-.6-1-1.4-1.9-2-2.7z" class="st20"/>
      <path id="XMLID_114_" d="M194.7 22.7c-.1-5.3-.1-5.3-3.8-5.8-.7 1.1-2.1.9-3.1 1.4-2.5 1.2-2.7 2.6-.5 4.2 2.4 1.7 4.9 1.8 7.4.2z" class="st20"/>
      <path id="XMLID_115_" d="M214 108.7c-4.2-.1-8 4.3-8.1 9.1-.1 4.1 2.5 7.1 6 7.2 4.2 0 7.9-4.2 8-9.1 0-4.4-2.3-7.2-5.9-7.2z" class="st20"/>
      <path id="XMLID_116_" d="M177.6 28.7c1.1-.1 2.1-.7 2-1.8-.2-2.4-2.3-1.9-3.8-2.1-.6.4-1.2.7-1.8 1.1-.2 2.6 1.5 3 3.6 2.8z" class="st20"/>
      <path id="XMLID_117_" d="M54.5 107.1c-.1-.2-.3-.4-.4-.6-.1-.1-.2-.3-.3-.4.1.1.2.2.3.4.1.2.2.4.4.6z" class="st20"/>
      <path id="XMLID_118_" d="M34.8 98.1c-.2-4.4-3-6.8-6.8-8.3-3.8-1.5-7.8-1.1-11.8-1.7-1.5-.2-2.4.8-2.5 2.4-.4 4-.8 7.9-1.1 11.5v2.9c0 4 .2 4.4 4 4.7 4.2.4 8.3-.1 12.1-2 3.9-2 6.3-5 6.1-9.5z" class="st20"/>
      <path id="XMLID_25_" d="M55.3 112.9c-.9 1.3-1.7 2.7-3.4 3.3-1.3 1.6-3.3 2.1-5 3.1-1.1.6-3.1.5-2.6 2.3.5 1.8 2.4 1.4 3.8 1.4 2.1 0 3.8-1 5.4-2.2" class="st20"/>
      <path id="XMLID_120_" d="M45.3 115.8c2.3.2 5.9-3.2 5.7-5.3-.2-1.5-1.1-2-2.5-1.5-1.5.5-4.2 4.4-4.1 5.9 0 .7.3.8.9.9z" class="st20"/>
      <path id="XMLID_121_" d="M203.4 31.9c-1.5.2-2.4.9-2.6 2.5-.1 1.7.8 2.4 2.3 2.5 1.5 0 2.9-.1 4.4-.2 1.3-1.2 1.2-2.5.1-3.8-1.4-.2-2.7-1.2-4.2-1z" class="st20"/>
      <path id="XMLID_122_" d="M251.2 116c-.8-.2-1.3-.6-.5-1.2 1.8-1.5 1.5-2.7-.1-4-1.7-1.3-3.4-1.3-5.1-.2-2.2 1.4-3.6 3.4-3.7 6.1-.1 4.2 3.4 7.5 7.3 7.1 2.5-.3 3.8-2 4.4-4.2.6-2-.4-3.2-2.3-3.6z" class="st20"/>
      <path id="XMLID_123_" d="M101.8 109.4c-3.8 2.7-6.3 6.2-7.1 10.9 0 1.2-.1 2.3 1.1 3.1 1.3.8 2.3 0 3.1-.8 3.1-3.1 5-6.9 6.1-11.1.2-.8.3-1.7-.4-2.3-1-.9-2-.4-2.8.2z" class="st20"/>
      <path id="XMLID_124_" d="M177.8 115.8c-.9-.2-.9-.9-.3-1.4 1.2-1 1.7-1.9.3-3.2-1.3-1.3-2.8-1.8-4.5-1.4-3.2.7-5.3 4.5-4.8 8.2.5 3.3 3.3 5.7 6.5 5.6 2.2-.1 3.8-1.1 4.6-3.2.8-2 .9-3.9-1.8-4.6z" class="st20"/>
      <path id="XMLID_127_" d="M164.2 37.1c-.9 2.2-1 4.7-2.4 6.8-.4 2.1-.6 4.3-1.4 6.2-.9 2.3-.2 3.1 2.1 2.9.8-.1 1.7-.2 2.4-.4 1.9-.6 2.9 0 2.7 2.1-.2 3.1 1.9 3.2 3.9 2.8 2.1-.4 4-1.3 6.1-2 .6-.6 1.2-1.1 1.8-1.7 4.2-4.2 4.5-6.7 1.1-11.6-2.7-3.9-6.7-6.3-10.8-8.4-2.9-.7-4.4.7-5.5 3.3zm6.3 4.5c.4.2.9.4.7 1.2-.3.2-.6.6-1.1.7-.9.3-1.9.2-2.6 1.2-.5.6-.4 2.5-1.8 1.5-1.6-1.1-.4-2.3.5-3.3 1.1-1.3 2.4-2.3 4.3-1.3z" class="st20"/>
      <path id="XMLID_128_" d="M207.7 21.9c2 .3 3.9 1.3 6 .9.4-.3.7-.6 1.1-.9 1.8-1 1.3-2 0-3-.7-.9-1.5-1.9-2.2-2.8-6.3-.7-6.9 0-4.9 5.8z" class="st20"/>
      <path id="XMLID_129_" d="M206.3 25.8c-.7.1-1.2-.3-1.6-.9h-1c-.5.9-1.2 1.7-1 2.9.1.6.4.9 1 .8 1.8 1.4 3.8 1.6 5.9 1.1.6-2.6-.1-4.4-3.3-3.9z" class="st20"/>
      <path id="XMLID_130_" d="M296.4 90.3c-3.3-.8-6.7.8-8.5 4.5-1.8 3.7-3 7.7-3.1 11.9 0 1.3-.4 2.8 1.4 3.3 3.3 1 2.7 2.2.6 4.2-2.1 2.2-1.7 5.8.4 7.6 2 1.7 4.8 1.4 7.2-.7 1.2-1.1 2.2-2.5 2.8-4 2.3-5.2 4-10.5 3.8-16.8v-2.5c-.3-4.2-1.8-6.8-4.6-7.5z" class="st20"/>
      <path id="XMLID_131_" d="M318.8 116.3c1.6-.1 4.7-2.5 5.1-4.2.2-.8.2-1.7-.5-2.2-.5-.4-1.3-.4-1.9-.1-2.2 1.1-3.3 3.1-3.8 5.4-.2.6.2 1.3 1.1 1.1z" class="st20"/>
      <path id="XMLID_132_" d="M384.5 116.5c2 .3 5.5-2.9 5.5-5.2-.2-1.2-1.1-1.8-2.4-1.2-2.2.9-3 3-3.9 4.9-.3.7 0 1.4.8 1.5z" class="st20"/>
      <path id="XMLID_133_" d="M212 32c-1.6 1.2-1.2 2.4-.1 3.7 3.3-.1 3.5-.6 1.7-3.7H212z" class="st20"/>
      <path id="XMLID_134_" d="M222.8 31.8c.3.3.7.6 1 1 .3 0 .6 0 .9.2 1.4 0 2.7 0 4.1-.1 0-2.6-1.9-3.4-3.9-3.7-1.6-.2-2.3 1-2.1 2.6z" class="st20"/>
      <path id="XMLID_135_" d="M215.8 25.8c-1.4.1-2.6.5-3 2 .4.6.7 1.2 1.1 1.8.3.4.6.8 1 1.1 1.6.1 3 1.3 4.7 1h.1c0-1.3.1-2.6.1-3.9-.4-.3-.7-.6-1.1-.9-.3 0-.6 0-.8-.1-1 0-1.7-.1-2.1-1z" class="st20"/>
      <path id="XMLID_136_" d="M217 35.6c1.5.4 3 .4 4.6.1 0-.6.1-1.2.1-1.8-.3 0-.6-.1-.9-.2-1.3.5-3.7-1.1-3.8 1.9z" class="st20"/>
      <path id="XMLID_137_" d="M218.8 24.8c.4.3.7.6 1.1 1 .3 0 .6.1.9.2.6 0 .9.3 1.2.8 1.4-.1 3.2.8 3.8-1.3.4-1.5-1-2.3-2-3.1-.6-.5-1.5-.6-1.9-1.5-1.4-.4-2.2-2-3.9-1.8-.9 1.6-.9 3.1 0 4.7.2.3.5.6.8 1z" class="st20"/>
      <path id="XMLID_141_" d="M38 135.9c.4.7.5 1.1.8 1.5 1.8 2.2 1.7 4.2-.4 6.1-2.1 1.9-4.5 1.8-6.7-.2-1.3-1.1-2.3-2.5-2.9-4-2.5-6.5-4.9-13.1-6.8-19.8-.8-2.7.2-3.6 2.7-4 4.3-.7 8.3-2.4 11.9-4.9 2.2-2.3 3.9-4.9 5-7.9 0-1.2.1-2.3.1-3.5-.1-8.6-4-13.7-12.2-16.1-5-1.4-10.1-2.1-15.3-2.1-5.1 0-5.8.3-7.2 5-.8 2.5-2.1 3.4-3.7 1.4-2.3-2.8-2.8-.3-3.2.9-.8 2.4.6 4.3 2.5 5.4C4.7 94.9 5 96.4 5 98.4c-.1 8.3-.9 16.6-1.7 24.9-.6 6.3-1 12.6-1.5 18.9-.1.9-.5 2.1.8 2.5 1.2.4 1.7-.7 2.4-1.4 1.4-1.5 2.3-3.2 2.9-5.2 1-3 1.5-6.1 1.8-9.3.3-3 .7-5.9 1.1-8.9.2-1.3.3-2.9 2.1-2.9 1.7 0 1.9 1.5 2.2 2.8.1.6.4 1.3.6 1.9 1.8 6 3.5 12.1 6.1 17.9 1.1 2.6 2.3 5.2 4.5 7.1 5 4.3 12.7 4 16.6-.8 1.7-2.1 2.5-4.4 1.3-6.9-1.3-2.3-3.1-3.7-6.2-3.1zm-21.4-26.4c-3.8-.3-4-.7-4-4.7v-2.9c.4-3.6.8-7.5 1.1-11.5.1-1.6 1-2.6 2.5-2.4 3.9.6 8 .2 11.8 1.7 3.8 1.5 6.6 3.9 6.8 8.3.2 4.5-2.2 7.5-6.1 9.4-3.8 2-8 2.5-12.1 2.1z" class="st21"/>
      <path id="XMLID_144_" d="M291.3 85.2c-.5.2-.9.5-1.3.7-.9.3-1.4.1-2-.8-1.9-2.6-2.4-2.7-4.3-.5-2.8 3.3-3.9 7.3-4.8 11.4-2.5 11.4-2.8 23.1-3.2 35.9v9.8c0 1.7.3 3.3 1.3 4.7.6.8 1.4 1.5 2.5 1.2 1.3-.3 1.3-1.4 1.3-2.3.4-4.3.6-8.6 1.1-12.9.5-5.2.6-5.2 5.8-4.1 7.2 1.4 12.9-1.2 16.3-7.6 4.8-8.9 5.7-18.3 2.9-28-2.6-8.6-7.3-10.8-15.6-7.5zm9.7 15.1c.2 6.2-1.5 11.6-3.8 16.8-.7 1.5-1.6 2.9-2.8 4-2.4 2.2-5.1 2.4-7.2.7-2.1-1.8-2.5-5.4-.4-7.6 2-2.1 2.7-3.3-.6-4.2-1.8-.5-1.4-2-1.4-3.3.2-4.2 1.3-8.2 3.1-11.9 1.8-3.7 5.2-5.3 8.5-4.5 2.8.7 4.3 3.2 4.6 7.5v2.5z" class="st21"/>
      <path id="XMLID_147_" d="M137.5 116.2c-.3-2.5-.9-4.9-1.6-7.3-1.2-3.8-3.8-5.2-7.7-4.4-2.1.5-4.2 1.2-5.4 3.2 0 .8.1 1.7-1 1.8-.8.1-.9-.7-1-1.3-.1-.7-.4-1.1-1-1.5-1 .4-1 1.2-1 2.1-2.1 3.6-2.1 7.6-2.2 11.6 0 1.4-.3 2.9-2 2.9-1.6.1-2.8-.7-3.1-2.6-.2-1.2-.2-2.3-.2-3.5.3-3.9 1.3-7.5 2.5-11.2.8-2.3 0-2.8-2-2-2.1.9-4.1 1-6.1-.4-1-.7-2.3-.4-3.4 0-6.3 2.9-11.3 7.3-13.3 14-1 3.3-.8 7.1 2.5 9.5 3.2 2.3 6.6 1.6 9.9-.2.6-.3 1.1-.8 1.6-1.2.9-.6 2-.8 2.7.1 2.5 3.3 5.7 2.9 9 2 .8-.2 1.6-.5 2.3.2 2.5 2.5 3.5.4 4.2-1.6 1-3 1.7-6.1 2.4-9.1.5-2 1-3.9 2.1-5.6.8-1.3 1.8-2.6 3.5-2.4 1.7.2 1.5 1.9 1.8 3.2 1.1 4.2 1.8 8.5 3.8 12.4.8 1.7 1.7 3.3 3.4 4.2.9.5 2 .6 2.8-.2.8-.8.1-1.5-.3-2.2-2-3-2.8-6.6-3.2-10.5zm-32.6-4.8c-1.1 4.2-2.9 8-6.1 11.1-.8.8-1.8 1.6-3.1.8-1.2-.7-1.1-1.9-1.1-3.1.7-4.7 3.3-8.2 7.1-10.9.8-.6 1.8-1 2.7-.3.8.7.7 1.6.5 2.4z" class="st21"/>
      <path id="XMLID_148_" d="M156 104.5c2-.7 3.9-1.8 5.8-2.8 1.4-.7 2.4-1.9 2.8-3.4.2-.6.3-1.4-.2-1.9-.6-.7-1.2-.1-1.7.2-1.6.8-3.2 1.8-4.9 2.4-4.6 1.6-5.8.7-5.5-4.1.1-2 .4-4 .4-6-.1-1.9 1.1-4.7-.5-5.5-2-1-3.6 1.7-5.5 2.7-2.3 1.2-1.6 3.4-1.7 5.3-.2 4.5-.1 4.5-4.5 3.9-3.5-.5-6.6.2-9.1 2.9-.5.5-.6 1.3-.1 1.8.2.3.9.4 1.3.2 2.6-.7 5.3-.7 7.9-.1 3.8.9 4.3 1.6 4.4 5.4v5.5c0 4.5-.1 9 1.8 13.2 1.2 2.5 2.7 4.5 5.9 4.6 5.3.1 9-4.2 6.8-10.9-.4-1.2-1.3-2.8-2.7-2.6-1.5.2-.4 1.9-.7 2.9-.1.5-.1 1-.4 1.4-.4.7-.7 1.6-1.8 1.5-.8-.1-.9-.9-1.1-1.5-1.2-3.1-.8-6.3-.8-9.4-.3-4.4-.2-4.3 4.1-5.7z" class="st21"/>
      <path id="XMLID_151_" d="M394.1 120.2c-1.8 1.8-3.8 3.3-6.4 3.5-1.6.1-3.9.5-4.4-1.4-.5-1.9 2-1.8 3.2-2.4 3.4-1.8 6.9-3.4 8.5-7.3 1.6-3.9-.2-7.5-4.3-8.4-2.4-.6-4.7.1-6.7 1.4-5.5 3.5-8 8.8-7.7 15.2.3 5.7 5 9.1 10.7 8.4 6.6-.8 13.2-8.3 13.5-15.7-2.3 2.5-4.3 4.7-6.4 6.7zm-10.4-5.1c.8-2 1.7-4 3.9-4.9 1.3-.6 2.2 0 2.4 1.2.1 2.3-3.5 5.5-5.5 5.2-.8-.2-1.1-.9-.8-1.5z" class="st21"/>
      <path id="XMLID_29_" d="M83.8 116.7c-2.5 1.1-4.2 3.2-6.3 4.8-2.2 1.8-5.7 2.1-7.4.8-2.3-1.8-2.4-4.1-1.7-6.7 1.5-5.3 5.7-8.4 12-8.5 2.5-.1 5 .2 7.2-1.9-2-1.3-4.2-2.1-6.5-2.3-5.1-.6-9.4 1-13.3 4.4-2.4 2-2.8 3.1-4.3 6.2-.6.1-1.4.2-2.4.1-2.5-.4-4.1-2.2-4.5-2.7.2.7.6 1.8 1.5 2.5.7.6 1.3.7 1.5 1.2.2.6-.2 1.3-1.3 2.6-1.5 1.6-3.1 2.7-4.8 3.7-3.1 1.8-4.6 2.1-5.4 2.2-.3 0-2.5.3-3.3-.5-.2-.2-.4-.5-.5-.9-.5-1.8 1.6-1.7 2.6-2.3 1.7-1 3.6-1.8 5-3.1 1.5 0 3.8-4.1 4.7-5.4 0 0 .4 0 .4-.5 0-1.3.2-1.4.1-1.7-.2-.7-.1-1-1.2-2.1-.3-.4-.6-.8-1-1.1-1.8-1.7-3.7-2.8-6.2-1.7-2.3-.1-4 1.2-5.8 2.4-2 2.4-3.5 5.2-5 7.9-.2.8-.5 1.6-.7 2.4-.7 4.4.2 8.3 4.1 10.8 1.5 1 3.1 1.5 4.6 1.6 3 .2 5.2-1.1 6.9-2.2 1.4-.9 1.3-1.1 5.9-5.9.3-.3.8-.9 1.1-1.8.2-.5.1-.8.2-1.5.1-.6.3-1.4.8-2.4.3.1.9.3 1.3.8 1.2 1.2.7 3 .7 3.1 0 .5 0 5.7 3.9 8.4 2.3 1.6 5.6 1.9 9.2.6 4.7-1.6 7.7-5 10-9.3.4-.7 1.2-1.4.6-2.2-.9-1.1-1.8-.2-2.7.2zm-29.3-9.6c-.1-.2-.3-.4-.4-.6-.1-.1-.2-.3-.3-.4m-5.3 2.9c1.4-.5 2.2 0 2.5 1.5.2 2.2-3.4 5.5-5.7 5.3-.5 0-.9-.2-.9-.9-.1-1.5 2.5-5.4 4.1-5.9z" class="st21"/>
      <path id="XMLID_159_" d="M251.6 105c-6.3-2.2-13 1.7-14.9 8.6-.7 2.7-.4 5.6-1.9 8.1 2.1-.1 2.4 1.8 3.4 3 3.2 4.1 7.6 4.4 12.2 3.9 4-.5 6.8-3.1 7.8-6.8 1.1-4 1-8.2-1.1-12.1-1.2-2.3-3-3.8-5.5-4.7zm1.8 14.6c-.7 2.2-2 3.9-4.4 4.2-3.9.5-7.4-2.9-7.3-7.1.1-2.7 1.5-4.7 3.7-6.1 1.7-1.1 3.4-1.1 5.1.2 1.7 1.3 2 2.5.1 4-.7.6-.3 1.1.5 1.2 2 .4 3 1.6 2.3 3.6z" class="st21"/>
      <path id="XMLID_162_" d="M174.7 104.1c-6.2-.2-11.7 5.8-11.9 13-.2 7.2 4 11.6 11.2 11.7 7 .1 11.4-4.3 11.5-11.5.2-7.4-4.5-13.1-10.8-13.2zm5 16.4c-.8 2.1-2.4 3-4.6 3.2-3.2.1-6-2.3-6.5-5.6-.6-3.8 1.6-7.5 4.8-8.2 1.7-.4 3.2.1 4.5 1.4 1.4 1.3.9 2.2-.3 3.2-.6.5-.6 1.2.3 1.4 2.6.6 2.5 2.5 1.8 4.6z" class="st21"/>
      <path id="XMLID_163_" d="M374.7 126.6c-3.5 2-4.6 1.9-7.4-.7-2-1.8-3.3-4.2-4.8-6.3-1.2-1.7-.9-3 .5-4.4 2-2 4.1-3.9 5.6-6.4.7-1.2 1.4-2.4 0-3.5-1.3-1-2.5-.6-3.6.4-1.6 1.5-3.1 3-4.6 4.6-1.9 2.1-3.7 2.4-5.8.1-1.7-1.8-3.5-3.6-5.7-4.8-1.2-.7-2.6-1.3-3.6-.2-1.2 1.3-.1 2.5.8 3.4 1.4 1.5 2.8 2.8 4.3 4.2 3.3 3.3 3.4 3.3.2 6.6-2.1 2.2-4.2 4.3-5.7 6.9-.5.9-1.6 1.9-.3 3.1 1.1.9 2.2.5 3.2-.1 2.4-1.3 4.1-3.4 6-5.3 3.5-3.4 3.4-3.3 6.6.4 2.7 3.2 5.6 6.2 10.3 6.2 2.8 0 4.6-.7 5.6-2.5.4-.7.9-1.6.1-2.2-.6-.6-1.2.1-1.7.5z" class="st21"/>
      <path id="XMLID_166_" d="M338.3 101.6c-2.6-.1-2.8 2-2.6 3.8.6 5.2-2 8.9-5.3 12.3-1.3 1.3-2.5 2.6-3.7 4-2.3.9-4.4 2.5-7.1 1.9-1-.2-2.1-.5-2.4-1.6-.3-1.3 1-1.5 1.9-1.8 3-1.1 5.7-2.6 7.9-4.9 2.8-3 3.3-5.9 1.6-8.5-1.7-2.7-5.1-3.7-8.8-2.2-5 2-7.7 6.1-9.2 11-1.5 5.2 0 9.8 3.9 12.2 3.4 2.1 8.4 1.4 12.3-1.8 3.3-1.2 4.6-4.8 7.7-6.9v7.4c0 2.8 2 3 4.1 3.1 2.1.1 3.1-.8 3.1-2.9.1-7.1.2-14.3.2-21.4.1-2.1-1.3-3.6-3.6-3.7zm-20.6 13.6c.5-2.3 1.6-4.3 3.8-5.4.6-.3 1.3-.3 1.9.1.7.6.7 1.4.5 2.2-.4 1.6-3.4 4.1-5.1 4.2-.9.2-1.3-.5-1.1-1.1z" class="st21"/>
      <g id="XMLID_4_">
        <path id="XMLID_19_" d="M194.7 22.7c-.1-5.3-.1-5.3-3.8-5.8-.7 1.1-2.1.9-3.1 1.4-2.5 1.2-2.7 2.6-.5 4.2 2.4 1.7 4.9 1.8 7.4.2z" class="st20"/>
        <path id="XMLID_42_" d="M184.8 22.8l-.9-1.2c0-.3-.1-.5-.2-.8-.3-1-1.1-.8-1.8-1 0 .3 0 .6-.1.9-.5.1-.9.4-1.1.9-.6.1-.9.5-1 1.1.7 2.8 1 3 5.1 3 1.7-.9 1.2-1.9 0-2.9z" class="st20"/>
        <path id="XMLID_43_" d="M190.6 26c-.2.1-.4.1-.5 0-.6.7-1.4.9-2.3.9-.3.3-.6.7-1 1v3c.3.3.8.6.9 1 1.1 2.3 2.7 1.8 4.4.9 2.2-1.1 1.3-2.6.5-4.1-.6-1-1.4-1.9-2-2.7z" class="st20"/>
        <path id="XMLID_44_" d="M196.8 19.8c.8 1.9 2.5 2.6 4.3 2.8 1.6.2 3.9 1 4.1-1.9.3-3.6-.6-4.9-3.5-5.1-1.5-.1-3 0-4.4.1-1.2.1-1.6.9-1.5 2.1-.1.9.1 1.6 1 2z" class="st20"/>
        <path id="XMLID_45_" d="M197.7 34c-1.8-.2-3.4.8-3.6 2.6-.2 1.3.3 3.2 2.3 3.1 1.6-.1 3.3-.6 3.4-3.3 0-1-.4-2.3-2.1-2.4z" class="st20"/>
        <path id="XMLID_46_" d="M203.4 31.9c-1.5.2-2.4.9-2.6 2.5-.1 1.7.8 2.4 2.3 2.5 1.5 0 2.9-.1 4.4-.2 1.3-1.2 1.2-2.5.1-3.8-1.4-.2-2.7-1.2-4.2-1z" class="st20"/>
        <path id="XMLID_47_" d="M207.8 13.8c-.5.1-.9.4-1 .9.5 0 .8-.3 1-.9z" class="st20"/>
        <path id="XMLID_48_" d="M177.6 28.7c1.1-.1 2.1-.7 2-1.8-.2-2.4-2.3-1.9-3.8-2.1-.6.4-1.2.7-1.8 1.1-.2 2.6 1.5 3 3.6 2.8z" class="st20"/>
        <path id="XMLID_49_" d="M228.8 27.1c-.2 0-.7.3-.7.5-.2 2 1.9 2 2.8 3 .3.4.6.8.9 1.1h.4l.4-.1c-.2-.6-.1-1.4-.5-1.8-.9-1.1-1.6-2.5-3.3-2.7z" class="st20"/>
        <path id="XMLID_50_" d="M192.2 37.5c-.5-.7-.8-1.4-1.8-1.4-1.9 0-4 2.1-4.4 4.6 3.7 3.4 3.7 3.4 6.7 1.1-.1-1.4.4-2.9-.5-4.3z" class="st20"/>
        <path id="XMLID_51_" d="M186.7 30.8c-1-.3-1.6-1-2.1-1.9-2.9-.3-4.2 1-3.8 3.9 1 1 1.9 2.1 2.9 3.1 3.4-.3 3-2.8 3-5.1z" class="st20"/>
        <path id="XMLID_52_" d="M198.8 24.9h-3c-.5 1-1.1 1.9-1.1 3 1.4 3.7 1.4 3.7 5 2.8.6 0 .9-.3 1.1-.8.5-2.2-1.1-3.5-2-5z" class="st20"/>
        <path id="XMLID_54_" d="M164.2 37.1c-.9 2.2-1 4.7-2.4 6.8-.4 2.1-.6 4.3-1.4 6.2-.9 2.3-.2 3.1 2.1 2.9.8-.1 1.7-.2 2.4-.4 1.9-.6 2.9 0 2.7 2.1-.2 3.1 1.9 3.2 3.9 2.8 2.1-.4 4-1.3 6.1-2 .6-.6 1.2-1.1 1.8-1.7 4.2-4.2 4.5-6.7 1.1-11.6-2.7-3.9-6.7-6.3-10.8-8.4-2.9-.7-4.4.7-5.5 3.3z" class="st20"/>
        <path id="XMLID_55_" d="M206.3 25.8c-.7.1-1.2-.3-1.6-.9h-1c-.5.9-1.2 1.7-1 2.9.1.6.4.9 1 .8 1.8 1.4 3.8 1.6 5.9 1.1.6-2.6-.1-4.4-3.3-3.9z" class="st20"/>
        <path id="XMLID_56_" d="M215.8 25.8c-1.4.1-2.6.5-3 2 .4.6.7 1.2 1.1 1.8.3.4.6.8 1 1.1 1.6.1 3 1.3 4.7 1h.1c0-1.3.1-2.6.1-3.9-.4-.3-.7-.6-1.1-.9-.3 0-.6 0-.8-.1-1 0-1.7-.1-2.1-1z" class="st20"/>
        <path id="XMLID_57_" d="M207.7 21.9c2 .3 3.9 1.3 6 .9.4-.3.7-.6 1.1-.9 1.8-1 1.3-2 0-3-.7-.9-1.5-1.9-2.2-2.8-6.3-.7-6.9 0-4.9 5.8z" class="st20"/>
        <path id="XMLID_73_" d="M217 35.6c1.5.4 3 .4 4.6.1 0-.6.1-1.2.1-1.8-.3 0-.6-.1-.9-.2-1.3.5-3.7-1.1-3.8 1.9z" class="st20"/>
        <path id="XMLID_74_" d="M212 32c-1.6 1.2-1.2 2.4-.1 3.7 3.3-.1 3.5-.6 1.7-3.7H212z" class="st20"/>
        <path id="XMLID_75_" d="M218.8 24.8c.4.3.7.6 1.1 1 .3 0 .6.1.9.2.6 0 .9.3 1.2.8 1.4-.1 3.2.8 3.8-1.3.4-1.5-1-2.3-2-3.1-.6-.5-1.5-.6-1.9-1.5-1.4-.4-2.2-2-3.9-1.8-.9 1.6-.9 3.1 0 4.7.2.3.5.6.8 1z" class="st20"/>
        <path id="XMLID_76_" d="M222.8 31.8c.3.3.7.6 1 1 .3 0 .6 0 .9.2 1.4 0 2.7 0 4.1-.1 0-2.6-1.9-3.4-3.9-3.7-1.6-.2-2.3 1-2.1 2.6z" class="st20"/>
      </g>
      <path id="XMLID_186_" d="M225.6 120.1c0-2.8.2-5.7.6-8.4 1.1-8.7 2.2-17.4 3.3-26.2.1-1.1.6-2.4-1.3-2.6-2.6-.3-5.1 1.8-5.4 4.5-.1 1.5-.1 3-.2 4.5-1.2 2.8-1.1 5.8-1.7 8.7-.5 2.1-.8 3.3-3.5 2.7-7.6-1.7-16.4 3.2-17.5 15.2-.5 5.7 2.5 9.5 8.1 10.8 3.3.8 6.6.6 9.8-.7 1.4-.6 2.6-1 4.1 0 2.7 1.8 5.3 1.4 7.8-.6 2.7-1.2 4.2-3.3 4.8-6.1-1.1.6-2.2 1.2-3.4 1.7-3.6 1.9-5.5.8-5.5-3.5zm-13.7 4.8c-3.5 0-6-3.1-6-7.2.1-4.8 3.9-9.1 8.1-9.1 3.6.1 5.9 2.9 5.9 7.1-.1 5-3.8 9.2-8 9.2z" class="st21"/>
      <path id="XMLID_187_" d="M234.7 121.9s.1 0 .1-.1v-.1h-.1v.2z" class="st21"/>
      <path id="XMLID_188_" d="M338.5 93c-2 .4-3.3 1.5-3.2 3.7.1 1.9 2.2 4.2 3.7 4 1.7-.2 3.7-2.6 3.6-4.3-.1-1.8-2.2-3.7-4.1-3.4z" class="st21"/>
      <path id="XMLID_190_" d="M181.8 20.8h-.1z" class="st21"/>
      <path id="XMLID_191_" d="M207.8 13.8c-.5.1-.9.4-1 .9.5 0 .8-.3 1-.9z" class="st22"/>
      <g id="XMLID_18_">
        <path id="XMLID_40_" d="M259.9 38.5c-.7-1.1-1.8-.2-2.7 0-7.3 1.4-13.5 0-17.7-6.9-.7-1.1-1.4-2.3-2.7-2.9-1-2.5-3-4.3-5-6.1-1.9-1.8-2.5-3.7-1.9-6.2.9-3.7.2-4.3-3.5-3.9-1.3.2-2.6.5-3.6 1.5-.6.6-1.4 1.2-2.2.7-3.6-2.4-7.8-3.5-11.8-4.9-1.4-.5-1.1-1.3-.1-2 1.9-1.3 4.5-1.3 6.2-2.9.5-.1 1-.1 1.5-.2.9-.3 2.2-.7 2-1.8-.1-1.2-1.5-1-2.4-1.1-3.4-.6-6.8-1.4-10.3-1.6-7-.5-13.9 0-20.5 2.9-2.4 1.1-4.2 2.5-4.5 5.4-.4 3.5-2.3 6.1-4.8 8.4-4.4 3.9-7.8 8.6-10.4 13.8-2.4 3-4 6.4-4.8 10.2-2 3.4-2.2 7.2-2.9 10.9-.2.8-.3 2 .2 2.4 2.2 2.3 6.4 2 7.6 5.9.2.7 1.9.6 2.8.4 4.2-.9 8.5-1.4 12.2-3.7l5.7-1.8c2.4-.8 4-.8 4.8 2.3.7 3.1 2.6 5.8 5 7.9.9.8 1.8 1.5 3.1 1.1 7.1-1.9 11.1-11.6 7.3-18.1-.7-1.2-1.3-1.9.5-2.5 4.8-1.8 9.6-3.8 14.4-5.6 2.9-1.1 5.9-1.2 8.8-.3 3.2 1 3.5 2.2 1.5 4.8-4.4 5.7-7.7 12-10.1 18.8-.5 1.4-.8 2.9-.8 4.4 0 1.8.9 2 2.2 1.1 1.1-.8 2.2-1.5 3.2-2.4 4.7-4 9.1-8.3 13.1-13 3.9-4.6 8.6-7.6 14.5-9 1.9-.4 3.9-.9 5.3-2.6.7-.9 1.8-2 .8-3.4zm-52.1-24.7c-.1.5-.5.8-1 .9.1-.5.4-.8 1-.9zm4.8 2.2c.7.9 1.5 1.9 2.2 2.8 1.4 1 1.8 2 0 3-.4.3-.7.6-1.1.9-2.1.3-4-.6-6-.9-2-5.7-1.4-6.4 4.9-5.8zm-15.3-.2c1.5-.1 3-.2 4.4-.1 2.8.1 3.7 1.4 3.5 5.1-.2 2.9-2.5 2.1-4.1 1.9-1.8-.2-3.5-.9-4.3-2.8-.9-.4-1.1-1.1-1-2-.1-1.2.2-2 1.5-2.1zm-9.5 2.5c1-.5 2.3-.3 3.1-1.4 3.8.6 3.8.6 3.8 5.8-2.5 1.6-5 1.5-7.4-.2-2.2-1.6-2-3 .5-4.2zm-7.1 3.4c.2-.5.5-.8 1.1-.9.1-.3.1-.6.1-.9.7.1 1.6 0 1.8 1 .1.2.2.5.2.8l.9 1.2c1.2 1 1.7 2 0 2.9-4 0-4.4-.2-5.1-3 .1-.6.4-.9 1-1.1zm-5 3.1c1.6.3 3.6-.2 3.8 2.1.1 1.1-1 1.7-2 1.8-2.1.2-3.7-.2-3.6-2.8.6-.4 1.2-.7 1.8-1.1zm3.7 29.1c-.6.6-1.2 1.1-1.8 1.7-2 .7-4 1.6-6.1 2-2 .4-4.1.2-3.9-2.8.2-2.1-.8-2.7-2.7-2.1-.8.2-1.6.3-2.4.4-2.3.2-3-.5-2.1-2.9.7-2 .9-4.2 1.4-6.2 1.4-2 1.6-4.5 2.4-6.8 1-2.6 2.6-4 5.5-3.2 4.1 2.1 8 4.5 10.8 8.4 3.4 4.7 3.2 7.3-1.1 11.5zm4.3-18.1c-1-1-1.9-2.1-2.9-3.1-.4-2.9.9-4.2 3.8-3.9.4.9 1 1.7 2.1 1.9 0 2.4.4 4.9-3 5.1zm9 6c-3.1 2.4-3.1 2.4-6.7-1.1.4-2.5 2.5-4.6 4.4-4.6 1 0 1.3.7 1.8 1.4.9 1.4.4 2.9.5 4.3zm-.5-9.1c-1.7.9-3.3 1.4-4.4-.9-.2-.4-.6-.6-.9-1v-3c.3-.3.6-.7 1-1 .9 0 1.7-.2 2.3-.9.2.1.3.1.5 0 .7.9 1.5 1.7 2.1 2.7.7 1.4 1.5 2.9-.6 4.1zm4.2 6.9c-1.9.1-2.4-1.7-2.3-3.1.2-1.8 1.8-2.7 3.6-2.6 1.6.1 2 1.4 2 2.4 0 2.7-1.7 3.2-3.3 3.3zm4.4-9.8c-.1.6-.5.8-1.1.8-3.6 1-3.6 1-5-2.8 0-1.2.6-2.1 1.1-3h3c.9 1.6 2.5 2.9 2 5zm6.8 6.9c-1.5.1-2.9.2-4.4.2-1.5 0-2.5-.8-2.3-2.5.1-1.5 1.1-2.3 2.6-2.5 1.6-.2 2.8.8 4.3 1 .9 1.3 1.1 2.5-.2 3.8zm2.1-6.9c-2.1.4-4.1.3-5.9-1.1-.6 0-.9-.3-1-.8-.2-1.1.5-2 1-2.9h1c.4.5.9 1 1.6.9 3.1-.6 3.8 1.2 3.3 3.9zm2.2 5.8c-1.1-1.2-1.5-2.5.1-3.7.6 0 1.1 0 1.7-.1 1.7 3.2 1.5 3.7-1.8 3.8zm2.9-4.8c-.3-.4-.6-.8-1-1.1-.4-.6-.7-1.2-1.1-1.8.4-1.5 1.6-1.9 3-2 .4.9 1.2 1 2 .9.3.1.6.2.8.1.4.3.7.6 1.1.9 0 1.3-.1 2.6-.1 3.9h-.1c-1.5.4-2.9-.8-4.6-.9zm6.8 4.8c-1.5.3-3 .3-4.6-.1.1-2.9 2.5-1.3 3.8-1.9.3.1.6.2.9.2 0 .6-.1 1.2-.1 1.8zm.3-8.9c-.3-.5-.6-.8-1.2-.8-.3-.1-.6-.2-.9-.2-.4-.3-.7-.6-1.1-1-.3-.4-.6-.7-.9-1.1-.8-1.6-.8-3.2 0-4.7 1.7-.2 2.5 1.4 3.9 1.8.3.9 1.2 1 1.9 1.5 1 .8 2.4 1.6 2 3.1-.4 2.2-2.3 1.3-3.7 1.4zm2.8 6.3c-.3-.1-.6-.2-.9-.2-.3-.3-.7-.6-1-1-.2-1.6.5-2.8 2.1-2.6 1.9.3 3.9 1 3.9 3.7-1.4 0-2.7 0-4.1.1zm7.6-1.2h-.4c-.3-.4-.6-.8-.9-1.1-.9-1-3-1-2.8-3 0-.2.5-.5.7-.5 1.6.2 2.4 1.6 3.4 2.7.4.4.4 1.2.5 1.8l-.5.1z" class="st21"/>
        <path id="XMLID_84_" d="M170.5 41.6c-1.9-1-3.2 0-4.4 1.2-.9 1-2.1 2.2-.5 3.3 1.4 1 1.4-.8 1.8-1.5.7-1 1.7-.9 2.6-1.2.4-.2.8-.5 1.1-.7.3-.6-.2-.8-.6-1.1z" class="st21"/>
      </g>
    </g>
    <path id="XMLID_280_" d="M214.8 21.9v-3c1.3.9 1.8 1.9 0 3z" class="st5"/>
  </g>
</svg>
